<svg xmlns="http://www.w3.org/2000/svg" width="280.88" height="394.24" viewBox="0 0 210.66 295.68"><defs><clipPath id="a"><path d="M0 0h210.66v134H0Zm0 0"/></clipPath><clipPath id="b"><path d="M0 0h210.66v165H0Zm0 0"/></clipPath><clipPath id="c"><path d="M12 123h187v172.68H12Zm0 0"/></clipPath><clipPath id="d"><path d="M0 91h210.66v204.68H0Zm0 0"/></clipPath></defs><g clip-path="url(#a)"><path style="stroke:none;fill-rule:evenodd;fill:#bf2327;fill-opacity:1" d="M3.387 133.77C-30.438-47.47 242.87-39.84 206.907 132.09c-49.602-37.848-155.798-37.406-203.52 1.68"/></g><g clip-path="url(#b)"><path style="fill:none;stroke-width:9.6009;stroke-linecap:butt;stroke-linejoin:miter;stroke:#231f20;stroke-opacity:1;stroke-miterlimit:22.9256" d="M33.867 1619.105c-338.242 1812.383 2394.844 1736.093 2035.196 16.797-496.016 378.476-1557.97 374.062-2035.196-16.797Zm0 0" transform="matrix(.1 0 0 -.1 0 295.68)"/></g><g clip-path="url(#c)"><path style="stroke:none;fill-rule:evenodd;fill:#e5e0e2;fill-opacity:1" d="M12.266 154.887c54.004-40.313 133.3-44.055 186.48-.957-15.617 30.918-47.457 50.965-81.36 55.199v76.32c-2.984 12.215-20.644 13.766-24.96 0v-76.32c-34.156-2.867-63.914-24.54-80.16-54.242"/></g><g clip-path="url(#d)"><path style="fill:none;stroke-width:9.6009;stroke-linecap:butt;stroke-linejoin:miter;stroke:#231f20;stroke-opacity:1;stroke-miterlimit:22.9256" d="M122.656 1407.933c540.04 403.125 1333.008 440.547 1864.805 9.57-156.172-309.18-474.57-509.648-813.594-551.992V102.308c-29.844-122.149-206.445-137.656-249.61 0V865.51c-341.562 28.672-639.14 245.39-801.6 542.422Zm0 0" transform="matrix(.1 0 0 -.1 0 295.68)"/></g></svg>