<svg width="800" height="800" viewBox="0 0 24 24" id="Layer_1" data-name="Layer 1" xmlns="http://www.w3.org/2000/svg">
    <defs>
        <style>
            .cls-1 {
                fill: none;
                stroke: #020202;
                stroke-miterlimit: 10;
                stroke-width: 1.91px
            }
        </style>
    </defs>
    <path class="cls-1"
        d="M17.47 1.52a3.33 3.33 0 0 0-2.61 1.16 3.31 3.31 0 0 0-2.6-1.16A2.89 2.89 0 0 0 9.14 4.1c0 3.87 5.72 6 5.72 6s5.73-2.14 5.73-6a2.89 2.89 0 0 0-3.12-2.58ZM2.45 1.52h3.82M4.36 10.11V1.52M2.45 10.11h3.82M7.23 14.89v.95l-2.87 3.82-2.86-3.82v-.95M4.36 23.48v-3.82" />
    <rect class="cls-1" x="10.09" y="15.84" width="4.77" height="6.68" rx="2.39" />
    <path class="cls-1" d="M22.5 14.89v5.25a2.39 2.39 0 0 1-2.39 2.38 2.39 2.39 0 0 1-2.38-2.38v-5.25" />
</svg>