<svg xmlns="http://www.w3.org/2000/svg" viewBox="0 0 496 496" xml:space="preserve">
    <path
        d="M128 224c-17.648 0-32 14.352-32 32 0 14.872 10.232 27.288
        24 30.864V304h16v-17.136c13.768-3.576 24-15.992 24-30.864 
        0-17.648-14.352-32-32-32zm0 48c-8.824 0-16-7.176-16-16s7.176-16 16-16 16 7.176 
        16 16-7.176 16-16 16zM376 304v-17.136c13.768-3.576 24-15.992 24-30.864 
        0-17.648-14.352-32-32-32s-32 14.352-32 32c0 14.872 10.232 27.288 
        24 30.864V304h16zm-24-48c0-8.824 7.176-16 16-16s16 7.176 
        16 16-7.176 16-16 16-16-7.176-16-16zM176 224h144v16H176zM176 256h144v16H176zM176 288h144v16H176z" />
    <path
        d="M448 192v-8h24c13.232 0 24-10.768 
        24-24v-16c0-13.232-10.768-24-24-24h-56v16h-7.24l-7.472-82.168C400.16 41.384 389.88 32 
        377.392 32H368V0h-16v32H144V0h-16v32h-9.392c-12.496 0-22.768 9.384-23.896 21.832L87.24 
        136H80v-16H24c-13.232 0-24 10.768-24 24v16c0 13.232 10.768 24 24 24h24v8c0 13.232 10.768 24 
        24 24h6.12c-5.592 6.96-9.712 15.112-12.016 24H40c-13.232 0-24 10.768-24 24v56c-8.824 0-16 
        7.176-16 16v32c0 8.824 7.176 16 16 16h8v88c0 13.232 10.768 24 24 24h32c13.232 0 24-10.768 
        24-24v-56h25.472c3.312 9.288 12.112 
        16 22.528 16h192c10.416 0 19.216-6.712 22.528-16H392v56c0 13.232 10.768 24 24 24h32c13.232 0 24-10.768 24-24v-88h8c8.824 0 16-7.176 16-16v-32c0-8.824-7.176-16-16-16v-56c0-13.232-10.768-24-24-24h-26.104c-2.304-8.888-6.424-17.04-12.016-24H424c13.232 0 24-10.768 24-24zm-16-56h40c4.416 0 8 3.584 8 8v16c0 4.416-3.584 8-8 8h-40v-32zM110.648 55.28a7.964 7.964 0 0 1 7.96-7.28h258.784a7.958 7.958 0 0 1 7.96 7.28l13.136 144.456A63.683 63.683 0 0 0 368 192H128a63.683 63.683 0 0 0-30.488 7.736L110.648 55.28zM24 168c-4.416 0-8-3.584-8-8v-16c0-4.416 3.584-8 8-8h40v32H24zm48 32c-4.416 0-8-3.584-8-8v-8h16v-32h5.784l-4.368 48H72zm-40 64c0-4.416 3.584-8 8-8h24v16H48v16h16v32H32v-56zm56 208c0 4.416-3.584 8-8 8h-8v-16H56v16h-8c-4.416 0-8-3.584-8-8v-88h16v64h16v-64h16v88zm40-72h-24v-16h24v16zm0-32H16v-32h112v32zm224 40c0 4.416-3.584 8-8 8h-8v-16h-16v16h-16v-16h-16v16h-16v-16h-16v16h-16v-16h-16v16h-16v-16h-16v16h-16v-16h-16v16h-8c-4.416 0-8-3.584-8-8v-72h20.448c-2.752 4.728-4.448 10.144-4.448 16 0 17.648 14.352 32 32 32h112c17.648 0 32-14.352 32-32 0-5.856-1.696-11.272-4.448-16H352v72zm-176-56c0-8.824 7.176-16 16-16s16 7.176 16 16-7.176 16-16 16-16-7.176-16-16zm43.552-16h56.896c-2.752 4.728-4.448 10.144-4.448 16s1.696 11.272 4.448 16h-56.896c2.752-4.728 4.448-10.144 4.448-16s-1.696-11.272-4.448-16zM288 352c0-8.824 7.176-16 16-16s16 7.176 16 16-7.176 16-16 16-16-7.176-16-16zm72-32H80v-64c0-26.472 21.528-48 48-48h240c26.472 0 48 21.528 48 48v64h-56zm32 80h-24v-16h24v16zm64 72c0 4.416-3.584 8-8 8h-8v-16h-16v16h-8c-4.416 0-8-3.584-8-8v-88h16v64h16v-64h16v88zm-24-184h16v-16h-16v-16h24c4.416 0 8 3.584 8 8v56h-32v-32zm48 48v32H368v-32h112zm-65.416-136-4.368-48H416v32h16v8c0 4.416-3.584 8-8 8h-9.416z" />
    <path
        d="M359.304 176c4.464 0 8.752-1.88 11.768-5.16a16.05 16.05 0 0 0 
        4.176-12.168l-6.664-80C367.896 70.448 360.896 64 352.64 64H143.36c-8.256 
        0-15.256 6.448-15.936 14.672l-6.672 80-.008.008a16.13 16.13 0 0 0 4.184 12.168A16.045 
        16.045 0 0 0 136.696 176h222.608zM143.36 80h209.28l6.664 80-222.608.008v-.016L143.36 80z" />
</svg>